<svg width="75" height="75" viewBox="0 0 75 75" fill="none" xmlns="http://www.w3.org/2000/svg">
<path d="M75 37.5C75 58.2107 58.2107 75 37.5 75C16.7893 75 0 58.2107 0 37.5C0 16.7893 16.7893 0 37.5 0C58.2107 0 75 16.7893 75 37.5Z" fill="#FFB13B"/>
<path d="M63 23.5431V23.3629C63.0021 22.3819 62.7059 21.4209 62.1465 20.5933C61.5871 19.7657 60.7878 19.1062 59.843 18.6927C45.3484 12.4358 30.6508 12.4358 16.157 18.6927C15.2123 19.1062 14.4129 19.7657 13.8535 20.5933C13.2941 21.4209 12.9979 22.3819 13 23.3629V23.5431C13.0007 24.4035 13.2306 25.25 13.6685 26.0051C14.1065 26.7602 14.7386 27.3998 15.507 27.8654C15.2114 28.1039 14.974 28.3998 14.8113 28.7327C14.6485 29.0657 14.5643 29.4279 14.5643 29.7945C14.5643 30.1611 14.6485 30.5233 14.8113 30.8563C14.974 31.1892 15.2114 31.4851 15.507 31.7236C15.2818 31.961 15.1155 32.2427 15.0203 32.5482C14.7774 33.1992 14.6236 33.8767 14.5625 34.5644C14.5627 34.9479 14.6449 35.3275 14.8042 35.6805C14.9635 36.0335 15.1967 36.3526 15.4899 36.6189C14.8412 37.3352 14.5115 38.2598 14.5698 39.1996C14.628 40.1394 15.0696 41.0216 15.8024 41.6621C15.4654 41.865 15.1807 42.1361 14.969 42.4556C14.7572 42.7751 14.6237 43.135 14.5781 43.5091C14.5216 43.9737 14.6036 44.444 14.815 44.8672C15.0264 45.2903 15.3588 45.6497 15.775 45.9049C15.3772 46.258 15.0634 46.6864 14.8545 47.1621C14.6455 47.6377 14.5462 48.1497 14.5629 48.6642C14.5797 49.1786 14.7122 49.6839 14.9517 50.1466C15.1912 50.6093 15.5323 51.0189 15.9524 51.3483C14.8708 51.882 14.0101 52.7411 13.5073 53.7889C13.0046 54.8366 12.8887 56.0126 13.1782 57.1296C13.4676 58.2465 14.1458 59.2401 15.1046 59.9521C16.0634 60.664 17.2477 61.0533 18.4688 61.058H57.5313C58.7545 61.0558 59.9417 60.6675 60.9029 59.9553C61.8642 59.243 62.5441 58.2478 62.8339 57.1289C63.1237 56.0099 63.0068 54.8317 62.5017 53.7828C61.9966 52.7338 61.1325 51.8745 60.0477 51.3424C60.4696 51.0115 60.8117 50.5996 61.0511 50.1343C61.2906 49.6691 61.4218 49.161 61.4362 48.6442C61.4505 48.1273 61.3476 47.6136 61.1343 47.1371C60.921 46.6607 60.6022 46.2326 60.1992 45.8814C60.5359 45.6782 60.8204 45.407 61.0321 45.0876C61.2438 44.7681 61.3775 44.4084 61.4234 44.0343C61.4613 43.6762 61.4193 43.3145 61.3001 42.9725C61.1809 42.6305 60.9871 42.3157 60.7313 42.0483C60.5806 41.8952 60.4106 41.76 60.225 41.6459C60.9469 41.0023 61.3789 40.1225 61.432 39.1878C61.485 38.2531 61.1551 37.3349 60.5102 36.6226C60.8038 36.3559 61.0373 36.0361 61.1966 35.6825C61.3559 35.3288 61.4379 34.9486 61.4375 34.5644C61.3775 33.8771 61.2247 33.1998 60.9828 32.5489C60.8878 32.2431 60.7215 31.9612 60.4961 31.7236C60.7918 31.4851 61.0291 31.1892 61.1919 30.8563C61.3546 30.5233 61.4389 30.1611 61.4389 29.7945C61.4389 29.4279 61.3546 29.0657 61.1919 28.7327C61.0291 28.3998 60.7918 28.1039 60.4961 27.8654C61.2639 27.3995 61.8954 26.7597 62.3329 26.0046C62.7703 25.2495 62.9997 24.4032 63 23.5431ZM14.5625 23.5431V23.3629C14.5599 22.6634 14.77 21.9779 15.168 21.3872C15.566 20.7966 16.1353 20.3256 16.8086 20.03C23.4376 17.0817 30.6689 15.5279 38 15.4767C45.3311 15.5279 52.5625 17.0817 59.1914 20.03C59.8647 20.3256 60.434 20.7966 60.832 21.3872C61.23 21.9779 61.4402 22.6634 61.4375 23.3629V23.5431C61.4363 24.5182 61.0243 25.453 60.292 26.1425C59.5597 26.832 58.5669 27.2199 57.5313 27.2211H18.4688C17.4331 27.2199 16.4403 26.832 15.708 26.1425C14.9757 25.453 14.5638 24.5182 14.5625 23.5431ZM58.3906 35.962C58.0851 35.9602 57.7875 35.8697 57.5386 35.7028C57.2897 35.5358 57.1016 35.3006 57 35.0293C56.9459 34.8861 56.8461 34.7622 56.7141 34.6746C56.5822 34.587 56.4247 34.54 56.2633 34.5401H55.9859C55.8247 34.5402 55.6673 34.5872 55.5356 34.6748C55.4038 34.7624 55.304 34.8862 55.25 35.0293C55.1502 35.3017 54.9625 35.5381 54.7132 35.7054C54.464 35.8727 54.1655 35.9626 53.8594 35.9626C53.5533 35.9626 53.2548 35.8727 53.0055 35.7054C52.7562 35.5381 52.5686 35.3017 52.4688 35.0293C52.4147 34.8862 52.315 34.7624 52.1832 34.6748C52.0514 34.5872 51.8941 34.5402 51.7328 34.5401H51.4547C51.2934 34.5402 51.1361 34.5872 51.0043 34.6748C50.8725 34.7624 50.7728 34.8862 50.7188 35.0293C50.6189 35.3017 50.4313 35.5381 50.182 35.7054C49.9327 35.8727 49.6342 35.9626 49.3281 35.9626C49.022 35.9626 48.7235 35.8727 48.4743 35.7054C48.225 35.5381 48.0374 35.3017 47.9375 35.0293C47.8835 34.8862 47.7837 34.7624 47.652 34.6748C47.5202 34.5872 47.3629 34.5402 47.2016 34.5401H46.9234C46.7622 34.5402 46.6048 34.5872 46.4731 34.6748C46.3413 34.7624 46.2415 34.8862 46.1875 35.0293C46.0877 35.3017 45.9 35.5381 45.6508 35.7054C45.4015 35.8727 45.103 35.9626 44.7969 35.9626C44.4908 35.9626 44.1923 35.8727 43.943 35.7054C43.6937 35.5381 43.5061 35.3017 43.4063 35.0293C43.3522 34.8862 43.2525 34.7624 43.1207 34.6748C42.9889 34.5872 42.8316 34.5402 42.6703 34.5401H42.393C42.2316 34.54 42.0741 34.587 41.9421 34.6746C41.8102 34.7622 41.7103 34.8861 41.6563 35.0293C41.5564 35.3017 41.3688 35.5381 41.1195 35.7054C40.8702 35.8727 40.5717 35.9626 40.2656 35.9626C39.9595 35.9626 39.661 35.8727 39.4118 35.7054C39.1625 35.5381 38.9749 35.3017 38.875 35.0293C38.821 34.8862 38.7212 34.7624 38.5895 34.6748C38.4577 34.5872 38.3004 34.5402 38.1391 34.5401H37.8609C37.6997 34.5402 37.5423 34.5872 37.4106 34.6748C37.2788 34.7624 37.179 34.8862 37.125 35.0293C37.0252 35.3017 36.8375 35.5381 36.5883 35.7054C36.339 35.8727 36.0405 35.9626 35.7344 35.9626C35.4283 35.9626 35.1298 35.8727 34.8805 35.7054C34.6312 35.5381 34.4436 35.3017 34.3438 35.0293C34.2897 34.8861 34.1898 34.7622 34.0579 34.6746C33.926 34.587 33.7685 34.54 33.607 34.5401H33.3297C33.1684 34.5402 33.0111 34.5872 32.8793 34.6748C32.7475 34.7624 32.6478 34.8862 32.5938 35.0293C32.4939 35.3017 32.3063 35.5381 32.057 35.7054C31.8077 35.8727 31.5092 35.9626 31.2031 35.9626C30.897 35.9626 30.5985 35.8727 30.3493 35.7054C30.1 35.5381 29.9124 35.3017 29.8125 35.0293C29.7585 34.8862 29.6587 34.7624 29.527 34.6748C29.3952 34.5872 29.2379 34.5402 29.0766 34.5401H28.7984C28.6372 34.5402 28.4798 34.5872 28.3481 34.6748C28.2163 34.7624 28.1165 34.8862 28.0625 35.0293C27.9627 35.3017 27.775 35.5381 27.5258 35.7054C27.2765 35.8727 26.978 35.9626 26.6719 35.9626C26.3658 35.9626 26.0673 35.8727 25.818 35.7054C25.5687 35.5381 25.3811 35.3017 25.2813 35.0293C25.2272 34.8862 25.1275 34.7624 24.9957 34.6748C24.8639 34.5872 24.7066 34.5402 24.5453 34.5401H24.2672C24.1059 34.5402 23.9486 34.5872 23.8168 34.6748C23.685 34.7624 23.5853 34.8862 23.5313 35.0293C23.4314 35.3017 23.2438 35.5381 22.9945 35.7054C22.7452 35.8727 22.4467 35.9626 22.1406 35.9626C21.8345 35.9626 21.536 35.8727 21.2868 35.7054C21.0375 35.5381 20.8499 35.3017 20.75 35.0293C20.696 34.8862 20.5962 34.7624 20.4645 34.6748C20.3327 34.5872 20.1754 34.5402 20.0141 34.5401H19.7367C19.5753 34.54 19.4178 34.587 19.2859 34.6746C19.154 34.7622 19.0541 34.8861 19 35.0293C18.8846 35.3402 18.6559 35.6026 18.3544 35.7697C18.053 35.9369 17.6984 35.998 17.3536 35.9423C17.0088 35.8865 16.6962 35.7175 16.4712 35.4652C16.2463 35.213 16.1236 34.8938 16.125 34.5644C16.1955 34.0161 16.3264 33.4762 16.5156 32.9535C16.5598 32.8101 16.6523 32.684 16.7791 32.5944C16.9059 32.5047 17.0602 32.4562 17.2188 32.4562H58.7813C58.9399 32.4562 59.0943 32.5048 59.2211 32.5947C59.348 32.6845 59.4403 32.8107 59.4844 32.9542C59.6737 33.4767 59.8046 34.0164 59.875 34.5644C59.875 34.9351 59.7186 35.2906 59.4402 35.5527C59.1619 35.8148 58.7843 35.962 58.3906 35.962ZM61.4375 55.9089C61.4363 56.884 61.0243 57.8188 60.292 58.5083C59.5597 59.1978 58.5669 59.5857 57.5313 59.5868H18.4688C17.4328 59.5868 16.4392 59.1993 15.7066 58.5096C14.9741 57.8198 14.5625 56.8843 14.5625 55.9089C14.5625 54.9334 14.9741 53.998 15.7066 53.3082C16.4392 52.6185 17.4328 52.231 18.4688 52.231H57.5313C58.5669 52.2321 59.5597 52.62 60.292 53.3095C61.0243 53.999 61.4363 54.9338 61.4375 55.9089ZM18.4688 50.7598C17.8472 50.7598 17.251 50.5273 16.8115 50.1135C16.3719 49.6996 16.125 49.1383 16.125 48.553C16.125 47.9678 16.3719 47.4065 16.8115 46.9926C17.251 46.5788 17.8472 46.3463 18.4688 46.3463H47.8328L50.4055 48.7686C50.845 49.1823 51.441 49.4147 52.0625 49.4147C52.684 49.4147 53.28 49.1823 53.7195 48.7686L56.2922 46.3463H57.5313C58.1529 46.3463 58.749 46.5788 59.1885 46.9926C59.6281 47.4065 59.875 47.9678 59.875 48.553C59.875 49.1383 59.6281 49.6996 59.1885 50.1135C58.749 50.5273 58.1529 50.7598 57.5313 50.7598H18.4688ZM58.7031 42.6684C58.8675 42.6683 59.03 42.7008 59.1801 42.7638C59.3302 42.8267 59.4646 42.9187 59.5745 43.0337C59.6844 43.1487 59.7674 43.2842 59.8181 43.4313C59.8688 43.5785 59.8861 43.7341 59.8688 43.888C59.8208 44.1711 59.6644 44.4279 59.429 44.6098C59.1937 44.7917 58.8957 44.8861 58.5914 44.8751H55.9688C55.7616 44.8752 55.5629 44.9527 55.4164 45.0906L52.6149 47.7285C52.4683 47.8664 52.2697 47.9438 52.0625 47.9438C51.8553 47.9438 51.6567 47.8664 51.5102 47.7285L48.7086 45.0906C48.5617 44.9533 48.3633 44.8759 48.1563 44.8751H17.2969C17.1325 44.8752 16.9699 44.8426 16.8197 44.7797C16.6696 44.7167 16.5351 44.6246 16.4252 44.5096C16.3153 44.3945 16.2323 44.2589 16.1816 44.1116C16.131 43.9643 16.1138 43.8087 16.1313 43.6548C16.1793 43.3718 16.3359 43.1152 16.5712 42.9334C16.8065 42.7517 17.1044 42.6574 17.4086 42.6684H58.7031ZM59.875 38.9904C59.875 39.5757 59.6281 40.137 59.1885 40.5508C58.749 40.9647 58.1529 41.1972 57.5313 41.1972H18.4688C17.9948 41.1965 17.5322 41.0606 17.142 40.8073C16.7518 40.554 16.4523 40.1952 16.2831 39.7784C16.1138 39.3615 16.0828 38.9062 16.194 38.4724C16.3053 38.0386 16.5536 37.6468 16.9063 37.3486C17.4388 37.4748 17.998 37.4597 18.522 37.3051C19.0459 37.1504 19.5142 36.8623 19.875 36.4725C20.1589 36.7746 20.5076 37.0165 20.8982 37.1821C21.2888 37.3478 21.7123 37.4335 22.1406 37.4335C22.569 37.4335 22.9925 37.3478 23.3831 37.1821C23.7737 37.0165 24.1224 36.7746 24.4063 36.4725C24.69 36.7747 25.0388 37.0167 25.4294 37.1824C25.8199 37.3481 26.2435 37.4338 26.6719 37.4338C27.1003 37.4338 27.5238 37.3481 27.9144 37.1824C28.305 37.0167 28.6537 36.7747 28.9375 36.4725C29.2214 36.7746 29.5701 37.0165 29.9607 37.1821C30.3513 37.3478 30.7748 37.4335 31.2031 37.4335C31.6315 37.4335 32.055 37.3478 32.4456 37.1821C32.8362 37.0165 33.1849 36.7746 33.4688 36.4725C33.7526 36.7746 34.1014 37.0165 34.4919 37.1821C34.8825 37.3478 35.306 37.4335 35.7344 37.4335C36.1628 37.4335 36.5863 37.3478 36.9768 37.1821C37.3674 37.0165 37.7162 36.7746 38 36.4725C38.2839 36.7746 38.6326 37.0165 39.0232 37.1821C39.4138 37.3478 39.8373 37.4335 40.2656 37.4335C40.694 37.4335 41.1175 37.3478 41.5081 37.1821C41.8987 37.0165 42.2474 36.7746 42.5313 36.4725C42.8151 36.7746 43.1639 37.0165 43.5544 37.1821C43.945 37.3478 44.3685 37.4335 44.7969 37.4335C45.2253 37.4335 45.6488 37.3478 46.0393 37.1821C46.4299 37.0165 46.7787 36.7746 47.0625 36.4725C47.3463 36.7747 47.695 37.0167 48.0856 37.1824C48.4762 37.3481 48.8997 37.4338 49.3281 37.4338C49.7565 37.4338 50.1801 37.3481 50.5707 37.1824C50.9612 37.0167 51.31 36.7747 51.5938 36.4725C51.8776 36.7746 52.2264 37.0165 52.6169 37.1821C53.0075 37.3478 53.431 37.4335 53.8594 37.4335C54.2878 37.4335 54.7113 37.3478 55.1018 37.1821C55.4924 37.0165 55.8412 36.7746 56.125 36.4725C56.4858 36.8623 56.9541 37.1504 57.4781 37.3051C58.002 37.4597 58.5612 37.4748 59.0938 37.3486C59.3391 37.5552 59.5355 37.8083 59.6702 38.0911C59.8048 38.374 59.8746 38.6804 59.875 38.9904ZM58.7031 28.6922C59.0139 28.6922 59.312 28.8085 59.5318 29.0154C59.7515 29.2223 59.875 29.503 59.875 29.7956C59.875 30.0882 59.7515 30.3689 59.5318 30.5758C59.312 30.7827 59.0139 30.899 58.7031 30.899H17.2969C16.9861 30.899 16.688 30.7827 16.4682 30.5758C16.2485 30.3689 16.125 30.0882 16.125 29.7956C16.125 29.503 16.2485 29.2223 16.4682 29.0154C16.688 28.8085 16.9861 28.6922 17.2969 28.6922H58.7031Z" fill="black"/>
<path d="M25.5 21.3364H27.0625C27.2697 21.3364 27.4684 21.2589 27.6149 21.1209C27.7614 20.983 27.8438 20.7959 27.8438 20.6008C27.8438 20.4057 27.7614 20.2186 27.6149 20.0806C27.4684 19.9427 27.2697 19.8652 27.0625 19.8652H25.5C25.2928 19.8652 25.0941 19.9427 24.9476 20.0806C24.8011 20.2186 24.7188 20.4057 24.7188 20.6008C24.7188 20.7959 24.8011 20.983 24.9476 21.1209C25.0941 21.2589 25.2928 21.3364 25.5 21.3364Z" fill="black"/>
<path d="M26.2812 25.0143C26.2812 25.2094 26.3636 25.3965 26.5101 25.5344C26.6566 25.6724 26.8553 25.7499 27.0625 25.7499H28.625C28.8322 25.7499 29.0309 25.6724 29.1774 25.5344C29.3239 25.3965 29.4062 25.2094 29.4062 25.0143C29.4062 24.8192 29.3239 24.6321 29.1774 24.4942C29.0309 24.3562 28.8322 24.2787 28.625 24.2787H27.0625C26.8553 24.2787 26.6566 24.3562 26.5101 24.4942C26.3636 24.6321 26.2812 24.8192 26.2812 25.0143Z" fill="black"/>
<path d="M20.8125 23.5431H22.375C22.5822 23.5431 22.7809 23.4656 22.9274 23.3277C23.0739 23.1897 23.1562 23.0026 23.1562 22.8075C23.1562 22.6124 23.0739 22.4253 22.9274 22.2874C22.7809 22.1494 22.5822 22.0719 22.375 22.0719H20.8125C20.6053 22.0719 20.4066 22.1494 20.2601 22.2874C20.1136 22.4253 20.0312 22.6124 20.0312 22.8075C20.0312 23.0026 20.1136 23.1897 20.2601 23.3277C20.4066 23.4656 20.6053 23.5431 20.8125 23.5431Z" fill="black"/>
<path d="M36.4375 21.3364H38C38.2072 21.3364 38.4059 21.2589 38.5524 21.1209C38.6989 20.983 38.7812 20.7959 38.7812 20.6008C38.7812 20.4057 38.6989 20.2186 38.5524 20.0806C38.4059 19.9427 38.2072 19.8652 38 19.8652H36.4375C36.2303 19.8652 36.0316 19.9427 35.8851 20.0806C35.7386 20.2186 35.6562 20.4057 35.6562 20.6008C35.6562 20.7959 35.7386 20.983 35.8851 21.1209C36.0316 21.2589 36.2303 21.3364 36.4375 21.3364Z" fill="black"/>
<path d="M37.2188 25.0143C37.2188 25.2094 37.3011 25.3965 37.4476 25.5344C37.5941 25.6724 37.7928 25.7499 38 25.7499H39.5625C39.7697 25.7499 39.9684 25.6724 40.1149 25.5344C40.2614 25.3965 40.3438 25.2094 40.3438 25.0143C40.3438 24.8192 40.2614 24.6321 40.1149 24.4942C39.9684 24.3562 39.7697 24.2787 39.5625 24.2787H38C37.7928 24.2787 37.5941 24.3562 37.4476 24.4942C37.3011 24.6321 37.2188 24.8192 37.2188 25.0143Z" fill="black"/>
<path d="M31.75 23.5431H33.3125C33.5197 23.5431 33.7184 23.4656 33.8649 23.3277C34.0114 23.1897 34.0938 23.0026 34.0938 22.8075C34.0938 22.6124 34.0114 22.4253 33.8649 22.2874C33.7184 22.1494 33.5197 22.0719 33.3125 22.0719H31.75C31.5428 22.0719 31.3441 22.1494 31.1976 22.2874C31.0511 22.4253 30.9688 22.6124 30.9688 22.8075C30.9688 23.0026 31.0511 23.1897 31.1976 23.3277C31.3441 23.4656 31.5428 23.5431 31.75 23.5431Z" fill="black"/>
<path d="M47.375 21.3364H48.9375C49.1447 21.3364 49.3434 21.2589 49.4899 21.1209C49.6364 20.983 49.7188 20.7959 49.7188 20.6008C49.7188 20.4057 49.6364 20.2186 49.4899 20.0806C49.3434 19.9427 49.1447 19.8652 48.9375 19.8652H47.375C47.1678 19.8652 46.9691 19.9427 46.8226 20.0806C46.6761 20.2186 46.5938 20.4057 46.5938 20.6008C46.5938 20.7959 46.6761 20.983 46.8226 21.1209C46.9691 21.2589 47.1678 21.3364 47.375 21.3364Z" fill="black"/>
<path d="M48.1562 25.0143C48.1562 25.2094 48.2386 25.3965 48.3851 25.5344C48.5316 25.6724 48.7303 25.7499 48.9375 25.7499H50.5C50.7072 25.7499 50.9059 25.6724 51.0524 25.5344C51.1989 25.3965 51.2812 25.2094 51.2812 25.0143C51.2812 24.8192 51.1989 24.6321 51.0524 24.4942C50.9059 24.3562 50.7072 24.2787 50.5 24.2787H48.9375C48.7303 24.2787 48.5316 24.3562 48.3851 24.4942C48.2386 24.6321 48.1562 24.8192 48.1562 25.0143Z" fill="black"/>
<path d="M42.6875 23.5431H44.25C44.4572 23.5431 44.6559 23.4656 44.8024 23.3277C44.9489 23.1897 45.0312 23.0026 45.0312 22.8075C45.0312 22.6124 44.9489 22.4253 44.8024 22.2874C44.6559 22.1494 44.4572 22.0719 44.25 22.0719H42.6875C42.4803 22.0719 42.2816 22.1494 42.1351 22.2874C41.9886 22.4253 41.9062 22.6124 41.9062 22.8075C41.9062 23.0026 41.9886 23.1897 42.1351 23.3277C42.2816 23.4656 42.4803 23.5431 42.6875 23.5431Z" fill="black"/>
<path d="M32.5312 18.394H34.0938C34.301 18.394 34.4997 18.3165 34.6462 18.1786C34.7927 18.0406 34.875 17.8535 34.875 17.6584C34.875 17.4633 34.7927 17.2762 34.6462 17.1383C34.4997 17.0003 34.301 16.9228 34.0938 16.9228H32.5312C32.324 16.9228 32.1253 17.0003 31.9788 17.1383C31.8323 17.2762 31.75 17.4633 31.75 17.6584C31.75 17.8535 31.8323 18.0406 31.9788 18.1786C32.1253 18.3165 32.324 18.394 32.5312 18.394Z" fill="black"/>
<path d="M43.4688 18.394H45.0312C45.2385 18.394 45.4372 18.3165 45.5837 18.1786C45.7302 18.0406 45.8125 17.8535 45.8125 17.6584C45.8125 17.4633 45.7302 17.2762 45.5837 17.1383C45.4372 17.0003 45.2385 16.9228 45.0312 16.9228H43.4688C43.2615 16.9228 43.0628 17.0003 42.9163 17.1383C42.7698 17.2762 42.6875 17.4633 42.6875 17.6584C42.6875 17.8535 42.7698 18.0406 42.9163 18.1786C43.0628 18.3165 43.2615 18.394 43.4688 18.394Z" fill="black"/>
<path d="M53.625 23.5431H55.1875C55.3947 23.5431 55.5934 23.4656 55.7399 23.3277C55.8864 23.1897 55.9688 23.0026 55.9688 22.8075C55.9688 22.6124 55.8864 22.4253 55.7399 22.2874C55.5934 22.1494 55.3947 22.0719 55.1875 22.0719H53.625C53.4178 22.0719 53.2191 22.1494 53.0726 22.2874C52.9261 22.4253 52.8438 22.6124 52.8438 22.8075C52.8438 23.0026 52.9261 23.1897 53.0726 23.3277C53.2191 23.4656 53.4178 23.5431 53.625 23.5431Z" fill="black"/>
<path d="M20.0312 58.1157H21.5938C21.801 58.1157 21.9997 58.0382 22.1462 57.9002C22.2927 57.7623 22.375 57.5752 22.375 57.3801C22.375 57.185 22.2927 56.9979 22.1462 56.8599C21.9997 56.722 21.801 56.6445 21.5938 56.6445H20.0312C19.824 56.6445 19.6253 56.722 19.4788 56.8599C19.3323 56.9979 19.25 57.185 19.25 57.3801C19.25 57.5752 19.3323 57.7623 19.4788 57.9002C19.6253 58.0382 19.824 58.1157 20.0312 58.1157Z" fill="black"/>
<path d="M34.0938 55.1733H35.6562C35.8635 55.1733 36.0622 55.0958 36.2087 54.9579C36.3552 54.8199 36.4375 54.6328 36.4375 54.4377C36.4375 54.2426 36.3552 54.0555 36.2087 53.9176C36.0622 53.7796 35.8635 53.7021 35.6562 53.7021H34.0938C33.8865 53.7021 33.6878 53.7796 33.5413 53.9176C33.3948 54.0555 33.3125 54.2426 33.3125 54.4377C33.3125 54.6328 33.3948 54.8199 33.5413 54.9579C33.6878 55.0958 33.8865 55.1733 34.0938 55.1733Z" fill="black"/>
<path d="M52.8438 58.1157H54.4062C54.6135 58.1157 54.8122 58.0382 54.9587 57.9002C55.1052 57.7623 55.1875 57.5752 55.1875 57.3801C55.1875 57.185 55.1052 56.9979 54.9587 56.8599C54.8122 56.722 54.6135 56.6445 54.4062 56.6445H52.8438C52.6365 56.6445 52.4378 56.722 52.2913 56.8599C52.1448 56.9979 52.0625 57.185 52.0625 57.3801C52.0625 57.5752 52.1448 57.7623 52.2913 57.9002C52.4378 58.0382 52.6365 58.1157 52.8438 58.1157Z" fill="black"/>
</svg>
