<svg width="75" height="75" viewBox="0 0 75 75" fill="none" xmlns="http://www.w3.org/2000/svg">
<path d="M75 37.5C75 58.2107 58.2107 75 37.5 75C16.7893 75 0 58.2107 0 37.5C0 16.7893 16.7893 0 37.5 0C58.2107 0 75 16.7893 75 37.5Z" fill="#FFB13B"/>
<path d="M62.0994 16.0006C61.7295 15.6314 61.2695 15.3653 60.765 15.2287C60.655 14.8153 60.4578 14.4302 60.1867 14.0992C59.9156 13.7683 59.5768 13.4991 59.1932 13.3098C58.8095 13.1205 58.3899 13.0154 57.9623 13.0016C57.5347 12.9877 57.1091 13.0655 56.714 13.2296C56.3189 13.3938 55.9635 13.6405 55.6716 13.9532C55.3797 14.266 55.158 14.6375 55.0215 15.0429C54.8849 15.4484 54.8366 15.8783 54.8798 16.3039C54.9231 16.7296 55.0568 17.141 55.2721 17.5107L45.3299 27.456L45.3244 27.4506C45.2197 27.3457 45.0874 27.2728 44.9429 27.2402C44.7983 27.2077 44.6475 27.217 44.508 27.267L31.8275 31.8146C30.4489 32.3083 29.0026 32.5873 27.5392 32.642C23.6415 32.8089 19.9574 34.4692 17.2506 37.2788C14.5438 40.0884 13.0218 43.8318 13.0002 47.733C12.9786 51.6343 14.459 55.3943 17.1346 58.2337C19.8101 61.0731 23.4756 62.7741 27.3713 62.9842C27.651 62.9998 27.9291 63.0076 28.2072 63.0076C32.1232 63.0118 35.8885 61.4985 38.7124 58.7854C41.5364 56.0723 43.1992 52.3706 43.3517 48.4576C43.4065 46.9927 43.6855 45.5449 44.1791 44.1646L48.7275 31.4888C48.7776 31.3494 48.787 31.1987 48.7546 31.0541C48.7222 30.9096 48.6494 30.7772 48.5447 30.6724L48.5385 30.667L58.4822 20.7224C58.9387 20.9873 59.4568 21.1271 59.9846 21.1279H59.9955C60.3885 21.1294 60.7779 21.0528 61.141 20.9025C61.5042 20.7523 61.834 20.5315 62.1111 20.2529C62.6727 19.687 62.9868 18.9215 62.9846 18.1243C62.9824 17.3271 62.6641 16.5633 62.0994 16.0006ZM42.708 43.6373C42.1606 45.168 41.8513 46.7737 41.7908 48.3982C41.6827 51.0485 40.8047 53.6099 39.2642 55.7693C37.7237 57.9286 35.5874 59.5923 33.1165 60.557C30.6457 61.5217 27.9472 61.7456 25.3512 61.2013C22.7551 60.657 20.3739 59.3681 18.4986 57.4922C16.6233 55.6162 15.3351 53.2346 14.7917 50.6383C14.2483 48.0421 14.473 45.3437 15.4386 42.8732C16.4041 40.4026 18.0685 38.2669 20.2283 36.7271C22.3882 35.1873 24.9498 34.3102 27.6002 34.2029C29.2227 34.1423 30.8262 33.8329 32.3549 33.2857L44.5674 28.9053L47.0892 31.4271L42.708 43.6373ZM61.0064 19.1482C60.8731 19.2814 60.7147 19.3868 60.5403 19.4584C60.366 19.53 60.1793 19.5664 59.9908 19.5654C59.7999 19.565 59.6109 19.5269 59.4348 19.4533C59.2586 19.3797 59.0987 19.2721 58.9642 19.1365C58.815 18.9954 58.6173 18.9167 58.4119 18.9167C58.2065 18.9167 58.0088 18.9954 57.8596 19.1365L47.4392 29.5607L46.4377 28.5592L56.8572 18.1349C57.0037 17.9884 57.086 17.7898 57.086 17.5826C57.086 17.3754 57.0037 17.1768 56.8572 17.0303C56.7217 16.8956 56.6141 16.7355 56.5405 16.5593C56.4669 16.383 56.4288 16.1939 56.4283 16.0029C56.4268 15.8144 56.463 15.6275 56.5346 15.4531C56.6062 15.2787 56.7119 15.1203 56.8455 14.9873C57.0446 14.7912 57.2963 14.6569 57.5701 14.6007C57.8439 14.5445 58.1281 14.5688 58.3884 14.6705C58.6487 14.7723 58.8739 14.9473 59.037 15.1743C59.2 15.4013 59.2939 15.6706 59.3072 15.9498C59.3179 16.1417 59.3989 16.323 59.5348 16.4589C59.6708 16.5948 59.852 16.6758 60.0439 16.6865C60.3231 16.6998 60.5925 16.7937 60.8195 16.9567C61.0465 17.1198 61.2214 17.3451 61.3232 17.6054C61.4249 17.8657 61.4492 18.1499 61.393 18.4236C61.3368 18.6974 61.2025 18.9491 61.0064 19.1482Z" fill="black"/>
<path d="M37.7812 36C37.574 36 37.3753 36.0823 37.2288 36.2288C37.0823 36.3753 37 36.574 37 36.7812V38.3438C37 38.551 37.0823 38.7497 37.2288 38.8962C37.3753 39.0427 37.574 39.125 37.7812 39.125C37.9885 39.125 38.1872 39.0427 38.3337 38.8962C38.4802 38.7497 38.5625 38.551 38.5625 38.3438V36.7812C38.5625 36.574 38.4802 36.3753 38.3337 36.2288C38.1872 36.0823 37.9885 36 37.7812 36Z" fill="black"/>
<path d="M37.7812 36C37.574 36 37.3753 36.0823 37.2288 36.2288C37.0823 36.3753 37 36.574 37 36.7812V38.3438C37 38.551 37.0823 38.7497 37.2288 38.8962C37.3753 39.0427 37.574 39.125 37.7812 39.125C37.9885 39.125 38.1872 39.0427 38.3337 38.8962C38.4802 38.7497 38.5625 38.551 38.5625 38.3438V36.7812C38.5625 36.574 38.4802 36.3753 38.3337 36.2288C38.1872 36.0823 37.9885 36 37.7812 36Z" fill="black"/>
<path d="M37.7812 36C37.574 36 37.3753 36.0823 37.2288 36.2288C37.0823 36.3753 37 36.574 37 36.7812V38.3438C37 38.551 37.0823 38.7497 37.2288 38.8962C37.3753 39.0427 37.574 39.125 37.7812 39.125C37.9885 39.125 38.1872 39.0427 38.3337 38.8962C38.4802 38.7497 38.5625 38.551 38.5625 38.3438V36.7812C38.5625 36.574 38.4802 36.3753 38.3337 36.2288C38.1872 36.0823 37.9885 36 37.7812 36Z" fill="black"/>
</svg>
