<svg width="75" height="75" viewBox="0 0 75 75" fill="none" xmlns="http://www.w3.org/2000/svg">
<path d="M75 37.5C75 58.2107 58.2107 75 37.5 75C16.7893 75 0 58.2107 0 37.5C0 16.7893 16.7893 0 37.5 0C58.2107 0 75 16.7893 75 37.5Z" fill="#FFB13B"/>
<path d="M45.0336 19C44.9019 18.9996 44.7722 19.033 44.657 19.0969L13.407 36.2844C13.3659 36.3106 13.3275 36.3406 13.2922 36.3742C13.267 36.3922 13.2427 36.4115 13.2195 36.432C13.1541 36.4986 13.1012 36.5764 13.0633 36.6617C13.0594 36.6711 13.0594 36.682 13.0555 36.6922C13.0255 36.7718 13.0087 36.8557 13.0055 36.9406C13.0055 36.9508 13 36.9586 13 36.9688V55.7188C13 55.926 13.0823 56.1247 13.2288 56.2712C13.3753 56.4177 13.574 56.5 13.7812 56.5H62.2211C62.4283 56.5 62.627 56.4177 62.7735 56.2712C62.92 56.1247 63.0023 55.926 63.0023 55.7188V36.9688C62.997 32.2048 61.1021 27.6375 57.7335 24.2689C54.3649 20.9002 49.7976 19.0054 45.0336 19ZM45.232 20.5625C49.4121 20.6182 53.4137 22.2653 56.4217 25.1684C59.4297 28.0714 61.2179 32.0121 61.4219 36.1875H59.6945C59.3663 35.0825 58.8213 34.0539 58.0914 33.1618C57.3614 32.2697 56.4611 31.5319 55.443 30.9914C55.0084 29.024 53.9134 27.2645 52.3402 26.0057C50.7669 24.7468 48.8102 24.0644 46.7953 24.0719C46.5469 24.0719 46.2922 24.0844 46.0266 24.1102L46.018 24.093C45.5808 22.9961 44.8901 22.0184 44.0023 21.2398L45.232 20.5625ZM53.6617 33.6094L52.5164 33.0672L52.3297 31.8531C52.1096 30.5464 51.4321 29.3605 50.4183 28.5071C49.4045 27.6538 48.1204 27.1885 46.7953 27.1945C46.512 27.199 46.2293 27.2227 45.9492 27.2656L44.1664 27.5273L43.3812 25.9648C42.7265 24.7662 41.6626 23.8431 40.3836 23.3641L42.682 22.2148C43.6383 22.7789 44.0562 23.6328 44.6141 24.7727L44.8742 25.2992C44.9485 25.4469 45.0677 25.5673 45.2146 25.6429C45.3616 25.7186 45.5288 25.7457 45.6922 25.7203C46.0569 25.661 46.4258 25.6302 46.7953 25.6281C48.5078 25.6163 50.1689 26.2125 51.4829 27.3107C52.7969 28.4088 53.6787 29.9377 53.9711 31.625C53.9904 31.7512 54.0404 31.8708 54.1167 31.9732C54.193 32.0756 54.2932 32.1578 54.4086 32.2125C56.0986 33.0102 57.4101 34.4366 58.0633 36.1875H56.2914C55.737 35.0525 54.8083 34.1434 53.6617 33.6133V33.6094ZM38.118 24.4766C38.8967 24.4821 39.6611 24.6868 40.3383 25.0714C41.0155 25.4559 41.583 26.0075 41.9867 26.6734L43.0242 28.7375C43.098 28.8842 43.2162 29.0039 43.3619 29.0797C43.5076 29.1554 43.6735 29.1833 43.8359 29.1594L46.1672 28.8164C46.3741 28.7844 46.5829 28.7658 46.7922 28.7609C47.7444 28.7528 48.6684 29.0835 49.3993 29.6939C50.1302 30.3043 50.6203 31.1546 50.782 32.093L51.032 33.7188C51.0514 33.845 51.1014 33.9645 51.1777 34.067C51.2539 34.1694 51.3541 34.2515 51.4695 34.3063L52.9906 35.0258C53.5573 35.2946 54.0531 35.6925 54.4383 36.1875H16.8258L38.118 24.4766ZM14.5648 47.125H58.3148V48.6875H14.5648V47.125ZM58.3148 45.5625H14.5648V40.875H58.3148V45.5625ZM14.5648 54.9375V50.25H58.3148V54.9375H14.5648ZM61.4398 54.9375H59.8773V40.0938C59.8773 39.8866 59.795 39.6878 59.6485 39.5413C59.502 39.3948 59.3033 39.3125 59.0961 39.3125H14.5648V37.75H61.4398V54.9375Z" fill="black"/>
<path d="M38.9063 28.4859V26.8125C38.9063 26.6053 38.8239 26.4066 38.6774 26.2601C38.5309 26.1136 38.3322 26.0312 38.125 26.0312C37.9178 26.0312 37.7191 26.1136 37.5726 26.2601C37.4261 26.4066 37.3438 26.6053 37.3438 26.8125V28.4859C36.6073 28.6761 35.9655 29.1283 35.5386 29.7578C35.1117 30.3873 34.9291 31.1509 35.0249 31.9055C35.1208 32.66 35.4885 33.3537 36.0592 33.8565C36.6299 34.3593 37.3644 34.6367 38.125 34.6367C38.8856 34.6367 39.6201 34.3593 40.1908 33.8565C40.7615 33.3537 41.1293 32.66 41.2251 31.9055C41.3209 31.1509 41.1383 30.3873 40.7114 29.7578C40.2845 29.1283 39.6427 28.6761 38.9063 28.4859ZM38.125 33.0625C37.7816 33.0634 37.4475 32.9507 37.1747 32.7421C36.902 32.5335 36.7058 32.2406 36.6166 31.9089C36.5275 31.5772 36.5505 31.2254 36.682 30.9082C36.8135 30.591 37.0462 30.3261 37.3438 30.1547V30.7188C37.3438 30.926 37.4261 31.1247 37.5726 31.2712C37.7191 31.4177 37.9178 31.5 38.125 31.5C38.3322 31.5 38.5309 31.4177 38.6774 31.2712C38.8239 31.1247 38.9063 30.926 38.9063 30.7188V30.1547C39.2039 30.3261 39.4365 30.591 39.568 30.9082C39.6995 31.2254 39.7225 31.5772 39.6334 31.9089C39.5443 32.2406 39.3481 32.5335 39.0753 32.7421C38.8025 32.9507 38.4684 33.0634 38.125 33.0625Z" fill="black"/>
</svg>
