<svg width="75" height="75" viewBox="0 0 75 75" fill="none" xmlns="http://www.w3.org/2000/svg">
<path d="M75 37.5C75 58.2107 58.2107 75 37.5 75C16.7893 75 0 58.2107 0 37.5C0 16.7893 16.7893 0 37.5 0C58.2107 0 75 16.7893 75 37.5Z" fill="#FFB13B"/>
<path d="M55.7188 23.9375H40.0938V13.7812C40.0938 13.574 40.0114 13.3753 39.8649 13.2288C39.7184 13.0823 39.5197 13 39.3125 13H36.1875C35.9803 13 35.7816 13.0823 35.6351 13.2288C35.4886 13.3753 35.4062 13.574 35.4062 13.7812V23.9375H19.7812C19.574 23.9375 19.3753 24.0198 19.2288 24.1663C19.0823 24.3128 19 24.5115 19 24.7188V27.8438C19 28.051 19.0823 28.2497 19.2288 28.3962C19.3753 28.5427 19.574 28.625 19.7812 28.625H22.193L23.1922 39.6203C23.1922 39.6305 23.1922 39.6398 23.1922 39.6492L25.25 62.2898C25.2678 62.4845 25.3579 62.6654 25.5025 62.7969C25.6471 62.9283 25.8358 63.0008 26.0312 63H49.4688C49.6642 63.0008 49.8529 62.9283 49.9975 62.7969C50.1421 62.6654 50.2322 62.4845 50.25 62.2898L52.3125 39.6492C52.3125 39.6398 52.3125 39.6305 52.3125 39.6203L53.307 28.625H55.7188C55.926 28.625 56.1247 28.5427 56.2712 28.3962C56.4177 28.2497 56.5 28.051 56.5 27.8438V24.7188C56.5 24.5115 56.4177 24.3128 56.2712 24.1663C56.1247 24.0198 55.926 23.9375 55.7188 23.9375ZM36.9688 14.5625H38.5312V23.9375H36.9688V14.5625ZM26.7453 61.4375L24.7969 40.0156C25.6101 39.6402 26.5127 39.5018 27.4011 39.6163C28.2894 39.7309 29.1274 40.0938 29.8187 40.6633C29.9603 40.7843 30.1403 40.8508 30.3266 40.8508C30.5128 40.8508 30.6929 40.7843 30.8344 40.6633C31.6733 39.9478 32.7412 39.5572 33.8438 39.5625C34.4672 39.563 35.0843 39.688 35.6588 39.9303C36.2333 40.1726 36.7536 40.5273 37.1891 40.9734C37.339 41.12 37.5403 41.2021 37.75 41.2021C37.9597 41.2021 38.161 41.12 38.3109 40.9734C38.7464 40.5273 39.2667 40.1726 39.8412 39.9303C40.4157 39.688 41.0328 39.563 41.6562 39.5625C42.7578 39.558 43.8244 39.9485 44.6625 40.6633C44.804 40.7843 44.9841 40.8508 45.1703 40.8508C45.3565 40.8508 45.5366 40.7843 45.6781 40.6633C46.3698 40.0944 47.2077 39.7319 48.0959 39.6173C48.9841 39.5028 49.8866 39.6408 50.7 40.0156L48.7547 61.4375H26.7453ZM50.8492 38.4063C49.9153 38.0696 48.9157 37.9558 47.9301 38.0738C46.9444 38.1918 45.9999 38.5384 45.1719 39.0859C44.1371 38.3762 42.9111 37.9975 41.6562 38C40.236 38.0024 38.8586 38.4872 37.75 39.375C36.6414 38.4872 35.264 38.0024 33.8438 38C32.5889 37.9975 31.3629 38.3762 30.3281 39.0859C29.5 38.5387 28.5554 38.1923 27.5698 38.0745C26.5842 37.9566 25.5846 38.0705 24.6508 38.407L23.7656 28.625H51.7422L50.8492 38.4063ZM54.9375 27.0625H20.5625V25.5H54.9375V27.0625Z" fill="black"/>
</svg>
