<svg width="75" height="75" viewBox="0 0 75 75" fill="none" xmlns="http://www.w3.org/2000/svg">
<path d="M75 37.5C75 58.2107 58.2107 75 37.5 75C16.7893 75 0 58.2107 0 37.5C0 16.7893 16.7893 0 37.5 0C58.2107 0 75 16.7893 75 37.5Z" fill="#FFB13B"/>
<path d="M56.3141 28.1195C56.2408 28.0331 56.1496 27.9637 56.0468 27.9161C55.944 27.8685 55.8321 27.8438 55.7188 27.8438H55.6719C55.5592 27.8436 55.4478 27.8679 55.3453 27.9148C54.968 28.0891 54.5703 28.2617 54.1563 28.4352V20.0312C54.1563 19.824 54.074 19.6253 53.9275 19.4788C53.781 19.3323 53.5822 19.25 53.375 19.25H51.0313V16.9062C51.0313 16.699 50.949 16.5003 50.8025 16.3538C50.656 16.2073 50.4572 16.125 50.25 16.125H47.9063V13.7812C47.9063 13.574 47.824 13.3753 47.6775 13.2288C47.531 13.0823 47.3322 13 47.125 13H44C43.7928 13 43.5941 13.0823 43.4476 13.2288C43.3011 13.3753 43.2188 13.574 43.2188 13.7812V14.5625H41.6563V13.7812C41.6563 13.574 41.574 13.3753 41.4275 13.2288C41.281 13.0823 41.0822 13 40.875 13H34.625C34.4178 13 34.2191 13.0823 34.0726 13.2288C33.9261 13.3753 33.8438 13.574 33.8438 13.7812V14.5625H32.2813V13.7812C32.2813 13.574 32.199 13.3753 32.0525 13.2288C31.906 13.0823 31.7072 13 31.5 13H28.375C28.1678 13 27.9691 13.0823 27.8226 13.2288C27.6761 13.3753 27.5938 13.574 27.5938 13.7812V16.125H25.25C25.0428 16.125 24.8441 16.2073 24.6976 16.3538C24.5511 16.5003 24.4688 16.699 24.4688 16.9062V19.25H22.125C21.9178 19.25 21.7191 19.3323 21.5726 19.4788C21.4261 19.6253 21.3438 19.824 21.3438 20.0312V28.4352C20.9297 28.2617 20.5321 28.0891 20.1547 27.9148C20.0358 27.8679 19.9091 27.8437 19.7813 27.8438C19.668 27.8437 19.5562 27.8684 19.4534 27.9159C19.3506 27.9634 19.2594 28.0327 19.186 28.119C19.1127 28.2053 19.059 28.3064 19.0286 28.4155C18.9982 28.5246 18.992 28.639 19.0102 28.7508L24.4789 62.3445C24.5088 62.5275 24.6027 62.6939 24.744 62.814C24.8853 62.9341 25.0646 63 25.25 63H50.25C50.4354 63 50.6148 62.9341 50.7561 62.814C50.8973 62.6939 50.9913 62.5275 51.0211 62.3445L56.4899 28.7508C56.508 28.6391 56.5017 28.5248 56.4714 28.4158C56.441 28.3068 56.3874 28.2057 56.3141 28.1195ZM52.5938 20.8125V29.0555L52.5266 29.0805C52.075 29.2484 51.6063 29.4117 51.1149 29.5734L51.0313 29.6016V20.8125H52.5938ZM49.4688 17.6875V30.0852L49.3344 30.1242C49.2008 30.1633 49.0719 30.2023 48.9438 30.2359C48.8157 30.2695 48.6711 30.3141 48.5383 30.3484L48.1789 30.443L47.9063 30.5125V17.6875H49.4688ZM44.7813 14.5625H46.3438V30.8703L46.2969 30.8797C46.1618 30.907 46.0196 30.9336 45.8789 30.9578C45.7703 30.9781 45.6641 30.9992 45.5524 31.0195C45.3961 31.0484 45.2282 31.0758 45.0641 31.1039L44.7813 31.1539V14.5625ZM43.2188 16.125V31.3773C43.075 31.3961 42.9321 31.4148 42.7883 31.432C42.5243 31.4633 42.2602 31.493 41.9969 31.5195C41.8828 31.5312 41.7696 31.5398 41.6563 31.5508V16.125H43.2188ZM40.0938 15.3438V31.6719H40.0805C39.5274 31.7047 39.0172 31.7266 38.5313 31.7375V14.5625H40.0938V15.3438ZM35.4063 14.5625H36.9688V31.7406C36.4828 31.7297 35.9727 31.7078 35.4196 31.675H35.4063V14.5625ZM33.8438 16.125V31.5508C33.7305 31.5398 33.6172 31.5312 33.5032 31.5195C33.2399 31.493 32.9758 31.4633 32.7118 31.432C32.568 31.4148 32.425 31.3961 32.2813 31.3773V16.125H33.8438ZM29.1563 14.5625H30.7188V31.1539L30.4383 31.1063C30.2727 31.0781 30.1063 31.0508 29.9469 31.0219L29.6344 30.9625C29.4899 30.9352 29.3438 30.9078 29.2039 30.8797L29.1563 30.8703V14.5625ZM26.0313 17.6875H27.5938V30.5125L27.3227 30.443L26.9657 30.3484C26.8282 30.3117 26.6875 30.2703 26.5461 30.232C26.4235 30.1977 26.3016 30.1641 26.1766 30.1273C26.1289 30.1141 26.0789 30.0984 26.0313 30.0844V17.6875ZM24.4688 20.8125V29.6016L24.3782 29.5719C23.8899 29.4102 23.4227 29.2477 22.9719 29.0805L22.9063 29.0555V20.8125H24.4688ZM21.8407 30.3219C22.1711 30.4516 22.5133 30.5773 22.861 30.7023C23.5399 30.9453 24.2524 31.182 25.0227 31.4164C25.3149 31.5055 25.599 31.5896 25.875 31.6687C26.7078 31.9031 27.475 32.1039 28.2024 32.2664C29.1469 32.4766 30.1883 32.6641 31.3844 32.8391C32.4399 32.9953 33.5102 33.1086 34.5664 33.1844C36.6837 33.3586 38.8117 33.3586 40.9289 33.1844C41.9852 33.1063 43.0555 32.9922 44.111 32.8391C44.4094 32.7953 44.699 32.7508 44.9797 32.7055C45.8219 32.5687 46.5844 32.4242 47.293 32.2664C47.536 32.2125 47.7821 32.1547 48.0344 32.093C48.7914 31.907 49.5969 31.6836 50.475 31.4172C51.6399 31.0625 52.6813 30.7047 53.6571 30.3234C54.0266 30.1797 54.3789 30.0375 54.718 29.8961L53.4008 38H41.6563C41.4491 38 41.2504 38.0824 41.1039 38.2289L37.75 41.5828L34.3961 38.2289C34.2497 38.0824 34.051 38 33.8438 38H22.0993L20.7797 29.8945C21.1188 30.0359 21.4711 30.1781 21.8407 30.3219ZM22.3594 39.5625H33.5235L37.2008 43.2398C37.3473 43.3863 37.546 43.4686 37.7532 43.4686C37.9603 43.4686 38.159 43.3863 38.3055 43.2398L41.9797 39.5625H53.1407L51.1094 52.0625H24.3907L22.3594 39.5625ZM49.5852 61.4375H25.9133L24.643 53.625H50.8571L49.5852 61.4375Z" fill="black"/>
</svg>
