<svg width="44" height="40" viewBox="0 0 44 40" fill="none" xmlns="http://www.w3.org/2000/svg">
<path d="M7.97685 6.0283H37.7609C40.7865 6.0283 42.9227 8.69767 41.9659 11.2826L38.2722 21.2625C37.669 22.8924 35.9752 23.9919 34.0675 23.9919H10.8262M7.97685 6.0283L7.88732 5.46376C7.57537 3.49714 5.70527 2.03638 3.49951 2.03638H1.80322M7.97685 6.0283L10.8262 23.9919M10.8262 23.9919L11.2324 26.5524C11.5443 28.519 13.4144 29.9798 15.6202 29.9798H35.0459M35.0459 29.9798C32.5979 29.9798 30.6136 31.767 30.6136 33.9717C30.6136 36.1765 32.5979 37.9636 35.0459 37.9636C37.4939 37.9636 39.4783 36.1765 39.4783 33.9717C39.4783 31.767 37.4939 29.9798 35.0459 29.9798ZM21.7488 33.9717C21.7488 36.1765 19.7645 37.9636 17.3165 37.9636C14.8686 37.9636 12.8841 36.1765 12.8841 33.9717C12.8841 31.767 14.8686 29.9798 17.3165 29.9798C19.7645 29.9798 21.7488 31.767 21.7488 33.9717Z" stroke="black" stroke-width="3" stroke-linecap="round" stroke-linejoin="round"/>
</svg>
