<svg width="76" height="75" viewBox="0 0 76 75" fill="none" xmlns="http://www.w3.org/2000/svg">
<path d="M37.6506 0C16.9428 0 0 16.9051 0 37.7259C0 56.5512 13.7801 72.1762 31.7771 75V48.6446H22.2138V37.7259H31.7771V29.4051C31.7771 19.9548 37.387 14.759 46.009 14.759C50.1129 14.759 54.4051 15.4744 54.4051 15.4744V24.7741H49.6611C44.9924 24.7741 43.5241 27.6732 43.5241 30.6476V37.7259H53.9909L52.2966 48.6446H43.5241V75C52.396 73.5986 60.4751 69.0719 66.3023 62.2365C72.1294 55.4014 75.3215 46.7079 75.3011 37.7259C75.3011 16.9051 58.3584 0 37.6506 0Z" fill="black"/>
</svg>
