<svg width="75" height="75" viewBox="0 0 75 75" fill="none" xmlns="http://www.w3.org/2000/svg">
<path d="M40.0385 0.0767822C59.0676 0.0767822 74.6369 15.6461 74.6369 34.6752V40.0809C74.6369 59.11 59.0676 74.6793 40.0385 74.6793H34.6328C15.6037 74.6793 0.0344238 59.11 0.0344238 40.0809V34.6752C0.0344238 15.6461 15.6037 0.0767822 34.6328 0.0767822H40.0385ZM38.0158 18.8274L37.5344 18.8268C33.5261 18.8268 29.5177 18.9593 29.5177 18.9593C23.6631 18.9593 18.9169 23.7054 18.9169 29.56C18.9169 29.56 18.7952 33.0019 18.7851 36.6962L18.7844 37.1793C18.7844 41.3157 18.9169 45.5935 18.9169 45.5935C18.9169 51.4482 23.6631 56.1943 29.5177 56.1943C29.5177 56.1943 33.2654 56.3268 37.137 56.3268C41.2734 56.3268 45.6837 56.1943 45.6837 56.1943C51.5384 56.1943 56.1519 51.5807 56.1519 45.7261C56.1519 45.7261 56.2844 41.4964 56.2844 37.4443L56.282 36.4934C56.2641 32.8579 56.1519 29.4274 56.1519 29.4274C56.1519 23.5728 51.5383 18.9593 45.6837 18.9593C45.6837 18.9593 41.8674 18.8372 38.0158 18.8274ZM37.5344 22.2017C40.8214 22.2017 45.0357 22.3104 45.0357 22.3104C49.8366 22.3104 52.8007 25.2745 52.8007 30.0754C52.8007 30.0754 52.9094 34.2178 52.9094 37.468C52.9094 40.7907 52.8007 45.078 52.8007 45.078C52.8007 49.8788 49.8366 52.8429 45.0357 52.8429C45.0357 52.8429 41.3088 52.9343 38.075 52.9495L37.2085 52.9516C34.0338 52.9516 30.1656 52.8429 30.1656 52.8429C25.3648 52.8429 22.2681 49.7461 22.2681 44.9455C22.2681 44.9455 22.1594 40.6426 22.1594 37.2507C22.1594 34.076 22.2681 30.0754 22.2681 30.0754C22.2681 25.2745 25.3649 22.3104 30.1656 22.3104C30.1656 22.3104 34.2475 22.2017 37.5344 22.2017ZM37.5343 27.9719C32.2297 27.9719 27.9296 32.2721 27.9296 37.5767C27.9296 42.8812 32.2297 47.1814 37.5343 47.1814C42.8389 47.1814 47.1391 42.8812 47.1391 37.5767C47.1391 32.2721 42.8389 27.9719 37.5343 27.9719ZM37.5343 31.3266C40.9862 31.3266 43.7844 34.1248 43.7844 37.5767C43.7844 41.0285 40.9862 43.8267 37.5343 43.8267C34.0826 43.8267 31.2843 41.0285 31.2843 37.5767C31.2843 34.1248 34.0825 31.3266 37.5343 31.3266ZM47.5987 25.3065C46.317 25.3065 45.2779 26.3507 45.2779 27.6388C45.2779 28.9268 46.317 29.9709 47.5987 29.9709C48.8804 29.9709 49.9194 28.9268 49.9194 27.6388C49.9194 26.3506 48.8804 25.3065 47.5987 25.3065Z" fill="black"/>
</svg>
