<svg width="286" height="80" viewBox="0 0 286 80" fill="none" xmlns="http://www.w3.org/2000/svg">
<path d="M134.88 66V32.5455H148.275C150.736 32.5455 152.789 32.9103 154.434 33.6399C156.078 34.3696 157.314 35.3823 158.142 36.6783C158.969 37.9633 159.383 39.4444 159.383 41.1214C159.383 42.4283 159.122 43.5772 158.599 44.5682C158.076 45.5483 157.358 46.3542 156.443 46.9858C155.539 47.6065 154.504 48.0476 153.339 48.3089V48.6357C154.613 48.6901 155.806 49.0495 156.917 49.7138C158.038 50.3781 158.948 51.3092 159.645 52.5071C160.342 53.6941 160.69 55.1098 160.69 56.7543C160.69 58.5294 160.249 60.1139 159.367 61.5078C158.496 62.8909 157.205 63.9853 155.495 64.7912C153.786 65.5971 151.678 66 149.174 66H134.88ZM141.953 60.2173H147.72C149.691 60.2173 151.128 59.8416 152.032 59.0902C152.936 58.3279 153.388 57.3151 153.388 56.0518C153.388 55.1262 153.165 54.3094 152.718 53.6016C152.272 52.8937 151.635 52.3383 150.807 51.9354C149.99 51.5324 149.016 51.331 147.883 51.331H141.953V60.2173ZM141.953 46.5447H147.197C148.166 46.5447 149.027 46.3759 149.778 46.0384C150.54 45.6899 151.139 45.1998 151.575 44.5682C152.021 43.9366 152.245 43.1797 152.245 42.2976C152.245 41.0888 151.815 40.1141 150.954 39.3736C150.105 38.633 148.896 38.2628 147.328 38.2628H141.953V46.5447ZM181.252 55.3168V40.9091H188.211V66H181.53V61.4425H181.268C180.702 62.9126 179.76 64.0942 178.442 64.9872C177.135 65.8802 175.54 66.3267 173.656 66.3267C171.979 66.3267 170.503 65.9455 169.229 65.1832C167.955 64.4209 166.959 63.3374 166.24 61.9325C165.532 60.5277 165.173 58.8452 165.162 56.8849V40.9091H172.121V55.6435C172.131 57.1245 172.529 58.2952 173.313 59.1555C174.097 60.0159 175.148 60.446 176.466 60.446C177.304 60.446 178.088 60.2554 178.818 59.8743C179.548 59.4822 180.136 58.9051 180.582 58.1428C181.04 57.3804 181.263 56.4384 181.252 55.3168ZM193.777 66V40.9091H200.523V45.2869H200.785C201.242 43.7296 202.01 42.5535 203.088 41.7585C204.166 40.9527 205.408 40.5497 206.812 40.5497C207.161 40.5497 207.537 40.5715 207.94 40.6151C208.343 40.6586 208.696 40.7185 209.001 40.7947V46.9695C208.675 46.8714 208.223 46.7843 207.646 46.7081C207.068 46.6319 206.54 46.5938 206.061 46.5938C205.037 46.5938 204.123 46.817 203.317 47.2635C202.522 47.6991 201.89 48.3089 201.422 49.093C200.964 49.8771 200.736 50.781 200.736 51.8047V66H193.777ZM234.913 43.3594C234.684 42.5644 234.363 41.862 233.949 41.2521C233.536 40.6314 233.029 40.1087 232.43 39.6839C231.842 39.2483 231.167 38.9162 230.405 38.6875C229.653 38.4588 228.82 38.3445 227.905 38.3445C226.196 38.3445 224.693 38.7692 223.397 39.6186C222.112 40.468 221.11 41.7041 220.391 43.3267C219.672 44.9384 219.313 46.9096 219.313 49.2401C219.313 51.5705 219.667 53.5526 220.375 55.1861C221.083 56.8196 222.085 58.0665 223.381 58.9268C224.676 59.7763 226.206 60.201 227.971 60.201C229.572 60.201 230.938 59.9179 232.071 59.3516C233.214 58.7744 234.086 57.9631 234.684 56.9176C235.294 55.8722 235.599 54.6361 235.599 53.2095L237.037 53.4219H228.412V48.0966H242.411V52.3111C242.411 55.2514 241.79 57.7779 240.549 59.8906C239.307 61.9924 237.598 63.6151 235.42 64.7585C233.242 65.8911 230.748 66.4574 227.938 66.4574C224.802 66.4574 222.046 65.7659 219.672 64.3828C217.298 62.9889 215.447 61.0123 214.118 58.4531C212.801 55.883 212.142 52.8338 212.142 49.3054C212.142 46.5937 212.534 44.1761 213.318 42.0526C214.113 39.9181 215.224 38.1103 216.65 36.6293C218.077 35.1482 219.738 34.0211 221.633 33.2479C223.528 32.4747 225.58 32.0881 227.791 32.0881C229.686 32.0881 231.45 32.3658 233.084 32.9212C234.717 33.4657 236.166 34.2389 237.429 35.2408C238.703 36.2427 239.743 37.4351 240.549 38.8182C241.355 40.1903 241.872 41.7041 242.101 43.3594H234.913ZM258.93 66.4901C256.393 66.4901 254.198 65.951 252.347 64.8729C250.507 63.7839 249.085 62.2701 248.083 60.3317C247.082 58.3823 246.581 56.1226 246.581 53.5526C246.581 50.9607 247.082 48.6955 248.083 46.7571C249.085 44.8078 250.507 43.294 252.347 42.2159C254.198 41.1269 256.393 40.5824 258.93 40.5824C261.467 40.5824 263.656 41.1269 265.497 42.2159C267.348 43.294 268.775 44.8078 269.777 46.7571C270.779 48.6955 271.279 50.9607 271.279 53.5526C271.279 56.1226 270.779 58.3823 269.777 60.3317C268.775 62.2701 267.348 63.7839 265.497 64.8729C263.656 65.951 261.467 66.4901 258.93 66.4901ZM258.963 61.0994C260.117 61.0994 261.081 60.7727 261.854 60.1193C262.627 59.455 263.21 58.5511 263.602 57.4077C264.005 56.2642 264.206 54.9628 264.206 53.5036C264.206 52.0443 264.005 50.7429 263.602 49.5994C263.21 48.456 262.627 47.5521 261.854 46.8878C261.081 46.2235 260.117 45.8913 258.963 45.8913C257.797 45.8913 256.817 46.2235 256.022 46.8878C255.238 47.5521 254.645 48.456 254.242 49.5994C253.85 50.7429 253.654 52.0443 253.654 53.5036C253.654 54.9628 253.85 56.2642 254.242 57.4077C254.645 58.5511 255.238 59.455 256.022 60.1193C256.817 60.7727 257.797 61.0994 258.963 61.0994Z" fill="#F4F4F4"/>
<g clip-path="url(#clip0_160_689)">
<path d="M16.8384 35.4264L30.1412 6.96968C30.5565 6.12624 31.1479 5.38172 31.8756 4.78641C32.5863 4.16939 33.4207 3.71149 34.3229 3.44343L46.8722 0.00146484L48.1872 4.79605L35.639 8.23953C35.4349 8.32323 35.2461 8.44025 35.0804 8.58581C34.909 8.72411 34.7616 8.88984 34.6443 9.07629L21.3451 37.5331L16.8389 35.4275L16.8384 35.4264Z" fill="#E2DFDA"/>
<path d="M40.1487 21.9114L22.715 22.2811L5.28174 21.9114C5.04457 21.9017 4.80805 21.9429 4.58815 22.0323C4.36825 22.1217 4.17008 22.2571 4.00696 22.4296C3.84385 22.602 3.7196 22.8074 3.64258 23.032C3.56557 23.2565 3.53758 23.4949 3.56049 23.7312L7.39138 73.3881C7.439 73.8908 7.67018 74.3583 8.04071 74.7013C8.41125 75.0443 8.89515 75.2387 9.39999 75.2475H36.0309C36.5357 75.2386 37.0195 75.0441 37.3899 74.7011C37.7603 74.3581 37.9915 73.8907 38.0391 73.3881L41.8705 23.7312C41.8933 23.4949 41.8652 23.2565 41.7881 23.0319C41.7111 22.8074 41.5868 22.602 41.4236 22.4296C41.2605 22.2571 41.0623 22.1217 40.8424 22.0323C40.6224 21.9429 40.3859 21.9017 40.1487 21.9114Z" fill="#F0682D"/>
<path d="M6.75982 65.1982L39.6776 52.1493L40.7946 37.6437L5.70728 51.5547L6.75982 65.1982Z" fill="#EADEC7"/>
<path opacity="0.4" d="M40.1487 21.9114L22.715 22.2811L5.28174 21.9114C5.04457 21.9017 4.80805 21.9429 4.58815 22.0323C4.36825 22.1217 4.17008 22.2571 4.00696 22.4296C3.84385 22.602 3.7196 22.8074 3.64258 23.032C3.56557 23.2565 3.53758 23.4949 3.56049 23.7312L3.94892 28.768C9.06287 29.5382 25.669 32.708 40.3894 42.9187L41.8705 23.7307C41.8932 23.4944 41.8651 23.2561 41.788 23.0316C41.7109 22.8071 41.5866 22.6018 41.4234 22.4294C41.2603 22.257 41.0621 22.1216 40.8422 22.0323C40.6223 21.9429 40.3858 21.9017 40.1487 21.9114Z" fill="#D74A0D"/>
<path d="M45.2983 26.6897C45.2968 26.8954 45.2548 27.0987 45.1746 27.2881C45.0945 27.4775 44.9778 27.6493 44.8312 27.7936C44.6847 27.9378 44.5111 28.0518 44.3205 28.129C44.1299 28.2062 43.9259 28.2451 43.7203 28.2434H1.70938C1.29417 28.2465 0.894721 28.0846 0.598886 27.7932C0.30305 27.5018 0.135056 27.1049 0.131836 26.6897V20.1627C0.13519 19.7476 0.303251 19.3508 0.599072 19.0596C0.894893 18.7683 1.29426 18.6064 1.70938 18.6095H43.7203C43.9259 18.6079 44.1298 18.6467 44.3204 18.7239C44.511 18.801 44.6845 18.915 44.8311 19.0592C44.9776 19.2034 45.0943 19.3751 45.1745 19.5645C45.2546 19.7538 45.2967 19.9571 45.2983 20.1627V26.6897Z" fill="#D1490E"/>
</g>
<g clip-path="url(#clip1_160_689)">
<path fill-rule="evenodd" clip-rule="evenodd" d="M77.5703 28.3191C77.5703 28.7323 77.7987 29.111 78.164 29.3037L84.8839 32.8503C85.2292 33.0329 85.6447 33.0207 85.9789 32.8191C86.313 32.6175 86.518 32.2555 86.518 31.8656V9.82675C86.518 9.2119 86.019 8.71289 85.4041 8.71289H78.6842C78.0693 8.71289 77.5703 9.2119 77.5703 9.82675V28.3191Z" fill="#FFFC5C"/>
<path fill-rule="evenodd" clip-rule="evenodd" d="M81.4911 8.71289H78.6842C78.0693 8.71289 77.5703 9.2119 77.5703 9.82675V28.3191C77.5703 28.7323 77.7987 29.111 78.164 29.3037L84.8839 32.8503C85.2292 33.0329 85.6447 33.0207 85.9789 32.8191C86.2139 32.6776 86.3843 32.4571 86.4645 32.2042L80.9709 29.3037C80.6056 29.111 80.3772 28.7323 80.3772 28.3191V9.82675C80.3772 9.2119 80.8763 8.71289 81.4911 8.71289Z" fill="#FEFA22"/>
<path fill-rule="evenodd" clip-rule="evenodd" d="M104.984 33.8604C104.984 34.2503 105.188 34.6122 105.522 34.8139C105.857 35.0155 106.273 35.0277 106.618 34.845L113.337 31.2985C113.702 31.1058 113.932 30.7271 113.932 30.3139V11.8215C113.932 11.2067 113.09 11.0891 112.475 11.0891L106.139 11.0891C105.523 11.0891 104.984 11.2067 104.984 11.8215V33.8604Z" fill="#FFFC5C"/>
<path fill-rule="evenodd" clip-rule="evenodd" d="M113.179 11.0891H109.801C110.416 11.0891 110.915 11.5881 110.915 12.203V30.6953C110.915 31.1085 110.686 31.4873 110.321 31.68L105.346 34.3053C105.368 34.6718 105.568 35.0048 105.883 35.1953C106.219 35.3969 106.634 35.4092 106.979 35.2265L113.698 31.68C114.064 31.4873 114.293 31.1085 114.293 30.6953V12.203C114.293 11.5881 113.794 11.0891 113.179 11.0891Z" fill="#F3EF1A"/>
<path fill-rule="evenodd" clip-rule="evenodd" d="M97.729 39.4533C97.729 39.9166 98.0153 40.331 98.4486 40.4947C98.8807 40.6596 99.3697 40.5381 99.6771 40.1917L106.396 32.6041C106.576 32.4003 106.677 32.1374 106.677 31.8656V9.82675C106.677 9.2119 106.178 8.71289 105.563 8.71289H98.8429C98.228 8.71289 97.729 9.2119 97.729 9.82675V39.4533Z" fill="#FFFC5C"/>
<path fill-rule="evenodd" clip-rule="evenodd" d="M105.563 8.71289H102.614C103.229 8.71289 103.728 9.2119 103.728 9.82675V36.6864C103.728 36.9582 103.628 37.2211 103.448 37.4249L97.729 43.8831V44.2751C97.729 44.7374 98.0153 45.1518 98.4486 45.3166C98.8807 45.4803 99.3697 45.3601 99.6771 45.0125L106.396 37.4249C106.576 37.2211 106.677 36.9582 106.677 36.6864V9.82675C106.677 9.2119 106.178 8.71289 105.563 8.71289Z" fill="#F3EF1A"/>
<path fill-rule="evenodd" clip-rule="evenodd" d="M91.009 39.4533C91.009 40.0693 91.508 40.5672 92.1229 40.5672H98.8428C99.4577 40.5672 99.9567 40.0693 99.9567 39.4533V20.4107C99.9567 19.7948 99.4577 19.2969 98.8428 19.2969H92.1229C91.508 19.2969 91.009 19.7948 91.009 20.4107V39.4533Z" fill="#FFFC5C"/>
<path fill-rule="evenodd" clip-rule="evenodd" d="M98.8428 19.2969H96.0715C96.6864 19.2969 97.1854 19.7948 97.1854 20.4107V39.4533C97.1854 40.0693 96.6864 40.5672 96.0715 40.5672H98.8428C99.4577 40.5672 99.9567 40.0693 99.9567 39.4533V20.4107C99.9567 19.7948 99.4577 19.2969 98.8428 19.2969Z" fill="#FEFA22"/>
<path fill-rule="evenodd" clip-rule="evenodd" d="M84.3899 33.8604C84.3899 34.1322 84.489 34.395 84.6695 34.5989L91.3894 42.1865C91.6957 42.5329 92.1847 42.6543 92.618 42.4895C93.0502 42.3257 93.3364 41.9114 93.3364 41.448V11.8215C93.3364 11.2067 92.8385 10.7076 92.2226 10.7076H85.5038C84.8878 10.7076 84.3899 11.2067 84.3899 11.8215V33.8604Z" fill="#FFFC5C"/>
<path fill-rule="evenodd" clip-rule="evenodd" d="M87.9515 10.782H85.6837C85.0677 10.782 84.5698 11.281 84.5698 11.8958V33.9347C84.5698 34.2065 84.669 34.4694 84.8494 34.6732L86.8376 36.9176V11.8958C86.8376 11.281 87.3355 10.782 87.9515 10.782Z" fill="#FEFA22"/>
<path fill-rule="evenodd" clip-rule="evenodd" d="M86.2886 29.6033C86.2897 29.6301 86.2897 29.6568 86.2908 29.6835L86.2886 29.6033C86.234 28.2701 85.1369 27.2063 83.7902 27.2052H73.1929C72.8799 27.2052 72.5825 27.3366 72.3709 27.5672C72.1604 27.7967 72.0557 28.1052 72.0835 28.4171L75.7537 70.1869C75.8038 70.7616 76.2861 71.2027 76.8631 71.2027H114.103C114.681 71.2027 115.162 70.7616 115.213 70.1869L118.884 28.4171C118.91 28.1052 118.806 27.7967 118.595 27.5672C118.385 27.3366 118.086 27.2052 117.774 27.2052C117.774 27.2052 110.403 27.2052 107.177 27.2052C106.513 27.2052 105.877 27.4692 105.408 27.9381C104.939 28.4071 104.675 29.0442 104.675 29.7069V29.7092C104.675 34.7817 100.556 38.9007 95.4835 38.9007C90.4099 38.9007 86.2908 34.7817 86.2908 29.7092C86.2908 29.6702 86.2897 29.6323 86.2875 29.5944L86.2886 29.6033Z" fill="#F0682D"/>
<path fill-rule="evenodd" clip-rule="evenodd" d="M108.478 27.2052C108.79 27.2052 109.088 27.3366 109.299 27.5672C109.509 27.7967 109.614 28.1052 109.587 28.4171L105.917 70.1869C105.866 70.7616 105.385 71.2027 104.807 71.2027H114.103C114.681 71.2027 115.162 70.7616 115.213 70.1869L118.884 28.4171C118.91 28.1052 118.806 27.7967 118.595 27.5672C118.385 27.3366 118.086 27.2052 117.774 27.2052H108.478Z" fill="#E25012"/>
<path fill-rule="evenodd" clip-rule="evenodd" d="M73.8435 48.4533L74.4472 55.3202H88.7737C90.0268 57.7785 92.5831 59.4638 95.5293 59.4638C98.4765 59.4638 101.033 57.7785 102.286 55.3202C102.286 55.3202 110.543 55.3202 116.519 55.3202L117.123 48.4533H102.285C101.033 45.995 98.4765 44.3086 95.5293 44.3086C92.5831 44.3086 90.0268 45.995 88.7737 48.4533C88.7737 48.4533 80.3362 48.4533 73.8435 48.4533Z" fill="#F5F0E5"/>
<path fill-rule="evenodd" clip-rule="evenodd" d="M117.122 48.4532L116.519 55.3202H107.222L107.826 48.4532H117.122Z" fill="#EADEC7"/>
<path d="M95.5291 55.3191C97.4251 55.3191 98.962 53.7821 98.962 51.8862C98.962 49.9902 97.4251 48.4532 95.5291 48.4532C93.6332 48.4532 92.0962 49.9902 92.0962 51.8862C92.0962 53.7821 93.6332 55.3191 95.5291 55.3191Z" fill="#F0682D"/>
</g>
<path fill-rule="evenodd" clip-rule="evenodd" d="M98.038 57.8154L36.7576 57.8042C34.0523 57.8042 31.7058 59.6625 31.7058 61.6487C31.7058 63.405 31.7058 66.1712 31.7058 68.3994C31.7058 71.5097 33.5825 74.5147 37.0066 76.7138C40.2685 78.8086 44.6858 80 49.2984 80C60.2459 80 74.6097 80 85.5572 80C90.1685 80 94.5871 78.8086 97.8477 76.7138C101.272 74.5147 103.15 71.5097 103.15 68.3994C103.15 66.1712 103.15 63.405 103.15 61.6487C103.15 60.7901 102.737 59.9663 102.022 59.2994C101.076 58.4151 99.5878 57.8154 98.038 57.8154Z" fill="#FFB13C"/>
<path fill-rule="evenodd" clip-rule="evenodd" d="M98.0383 57.8154L91.7047 57.8042C93.2546 57.8042 94.7432 58.6336 95.6892 59.518C96.4042 60.1848 96.8165 61.0087 96.8165 61.8672C96.8165 63.6236 95.6892 66.1712 95.6892 68.3994C95.6892 71.5097 93.4959 74.5147 90.0719 76.7138C87.6258 78.2852 83.0987 79.5674 79.7563 80H85.5575C90.1689 80 94.5875 78.8086 97.8481 76.7138C101.272 74.5147 103.15 71.5097 103.15 68.3994C103.15 66.1712 103.15 63.405 103.15 61.6487C103.15 60.7901 102.738 59.9663 102.023 59.2994C101.077 58.4151 99.5882 57.8154 98.0383 57.8154Z" fill="#E38900"/>
<path fill-rule="evenodd" clip-rule="evenodd" d="M36.1883 45.3607L98.4632 45.3294C99.7386 45.3294 100.957 44.8474 101.806 44.0068C102.653 43.1661 103.049 42.0464 102.895 40.9312C102.893 40.9256 102.893 40.92 102.892 40.9144C100.763 27.3008 85.6722 16.6641 67.3239 16.6641C48.9768 16.6641 33.8865 27.2996 31.72 40.9077C31.7187 40.9144 31.7174 40.9211 31.7161 40.9267C31.5604 42.0509 31.96 43.1807 32.8154 44.0281C33.6695 44.8765 34.8976 45.3619 36.1883 45.3607Z" fill="#F8AC3A"/>
<path fill-rule="evenodd" clip-rule="evenodd" d="M61.8828 16.6641C78.8051 17.7838 94.6755 26.6081 96.6837 39.445C96.6837 39.4506 96.6824 40.9256 96.6837 40.9312C96.8382 42.0464 96.4424 43.1661 95.5934 44.0068C94.7457 44.8474 93.5277 45.3293 92.2523 45.3293H98.4634C99.7388 45.3293 100.957 44.8474 101.806 44.0068C102.653 43.1661 103.049 42.0464 102.895 40.9312C102.893 40.9256 102.893 40.92 102.892 40.9144C100.763 27.3008 85.6724 16.6641 67.324 16.6641C66.2784 16.6641 62.908 16.5957 61.8828 16.6641Z" fill="#E38900"/>
<path fill-rule="evenodd" clip-rule="evenodd" d="M37.1878 43.1191C34.1609 43.1191 31.7058 45.2745 31.7058 47.9342V47.9354C31.7045 49.203 32.2778 50.418 33.2978 51.3147C34.3179 52.2102 35.7005 52.7146 37.1444 52.7146C37.1444 52.7146 37.1444 52.7146 97.6677 52.7146C100.695 52.7146 103.15 50.5592 103.15 47.8995C103.151 46.6318 102.578 45.4157 101.558 44.5202C100.538 43.6235 99.1538 43.1191 97.7111 43.1191H37.1878Z" fill="#C65423"/>
<path fill-rule="evenodd" clip-rule="evenodd" d="M32.8767 44.9594C32.9342 44.9572 33.3363 44.6904 33.5916 44.6758H93.8047C95.2473 44.6758 96.6312 45.1791 97.6513 46.0758C98.6714 46.9713 99.2433 48.1863 99.2433 49.454C99.2433 50.6891 98.7135 51.8167 97.8428 52.6685C100.788 52.5878 103.15 50.4649 103.15 47.8568C103.151 46.5891 102.578 45.373 101.558 44.4775C100.538 43.5808 99.154 43.0764 97.7113 43.0764H37.188C35.5667 43.0764 33.5916 43.9731 32.8767 44.9594Z" fill="#E54F0D"/>
<path fill-rule="evenodd" clip-rule="evenodd" d="M70.0703 60.0671C70.9818 60.0671 74.494 60.3697 75.1604 60.9156C77.1329 62.5296 77.8465 65.2711 77.8465 65.2711C78.3368 65.6724 79.0977 65.6724 79.5879 65.2711C79.5879 65.2711 82.7885 62.2651 84.761 60.6511C85.4274 60.1052 86.4526 60.0671 87.3641 60.0671C90.8201 60.0671 97.7307 60.0671 97.7307 60.0671C100.758 60.0671 103.213 57.9117 103.214 55.252C103.214 53.9843 102.642 52.7682 101.622 51.8727C100.602 50.976 99.218 50.4728 97.7754 50.4728C85.5053 50.4728 49.5746 50.4728 37.2521 50.4728C34.2251 50.4728 31.7701 52.627 31.7688 55.2868C31.7688 56.5544 32.342 57.7705 33.3608 58.6672C34.3809 59.5627 35.7648 60.0671 37.2074 60.0671H70.0703Z" fill="#FFFC5C"/>
<path fill-rule="evenodd" clip-rule="evenodd" d="M31.7354 54.0169C32.4567 53.7109 33.8776 52.6707 34.7317 52.6707C47.0542 52.6707 81.9712 53.165 94.2413 53.165C95.684 53.165 98.4812 53.1202 99.5012 54.0169C100.521 54.9124 100.694 56.1812 100.694 57.4488C100.694 58.1998 99.8497 59.3016 99.5012 59.9349C101.335 59.157 103.246 57.1171 103.247 55.2083C103.247 53.9406 102.675 52.7245 101.655 51.829C100.635 50.9323 99.251 50.4291 97.8083 50.4291C85.5382 50.4291 49.6075 50.4291 37.2851 50.4291C35.1122 50.4291 32.6239 52.4073 31.7354 54.0169Z" fill="#FEFA22"/>
<path d="M64.0912 68.878C64.9726 68.878 65.687 68.2507 65.687 67.477C65.687 66.7032 64.9726 66.0759 64.0912 66.0759C63.2098 66.0759 62.4954 66.7032 62.4954 67.477C62.4954 68.2507 63.2098 68.878 64.0912 68.878Z" fill="#D17E00"/>
<path d="M52.5502 62.7806C53.4315 62.7806 54.146 62.1533 54.146 61.3796C54.146 60.6058 53.4315 59.9785 52.5502 59.9785C51.6688 59.9785 50.9543 60.6058 50.9543 61.3796C50.9543 62.1533 51.6688 62.7806 52.5502 62.7806Z" fill="#D17E00"/>
<path d="M57.2482 66.1879C58.1295 66.1879 58.844 65.5607 58.844 64.7869C58.844 64.0131 58.1295 63.3859 57.2482 63.3859C56.3668 63.3859 55.6523 64.0131 55.6523 64.7869C55.6523 65.5607 56.3668 66.1879 57.2482 66.1879Z" fill="#D17E00"/>
<path d="M71.3429 64.2153C72.2243 64.2153 72.9388 63.588 72.9388 62.8142C72.9388 62.0405 72.2243 61.4132 71.3429 61.4132C70.4616 61.4132 69.7471 62.0405 69.7471 62.8142C69.7471 63.588 70.4616 64.2153 71.3429 64.2153Z" fill="#D17E00"/>
<path d="M84.0075 43.1436C84.8888 43.1436 85.6033 42.5164 85.6033 41.7426C85.6033 40.9688 84.8888 40.3416 84.0075 40.3416C83.1261 40.3416 82.4116 40.9688 82.4116 41.7426C82.4116 42.5164 83.1261 43.1436 84.0075 43.1436Z" fill="#D17E00"/>
<path d="M43.4603 33.8184C44.3417 33.8184 45.0562 33.1912 45.0562 32.4174C45.0562 31.6436 44.3417 31.0164 43.4603 31.0164C42.579 31.0164 41.8645 31.6436 41.8645 32.4174C41.8645 33.1912 42.579 33.8184 43.4603 33.8184Z" fill="#D17E00"/>
<path d="M54.1847 30.142C55.0661 30.142 55.7806 29.5148 55.7806 28.741C55.7806 27.9672 55.0661 27.34 54.1847 27.34C53.3034 27.34 52.5889 27.9672 52.5889 28.741C52.5889 29.5148 53.3034 30.142 54.1847 30.142Z" fill="#D17E00"/>
<path d="M47.8522 30.2318C48.7336 30.2318 49.448 29.6045 49.448 28.8307C49.448 28.057 48.7336 27.4297 47.8522 27.4297C46.9708 27.4297 46.2563 28.057 46.2563 28.8307C46.2563 29.6045 46.9708 30.2318 47.8522 30.2318Z" fill="#D17E00"/>
<path d="M64.0912 35.2531C64.9726 35.2531 65.687 34.6259 65.687 33.8521C65.687 33.0783 64.9726 32.451 64.0912 32.451C63.2098 32.451 62.4954 33.0783 62.4954 33.8521C62.4954 34.6259 63.2098 35.2531 64.0912 35.2531Z" fill="#D17E00"/>
<path d="M85.5397 38.0327C86.4211 38.0327 87.1355 37.4054 87.1355 36.6316C87.1355 35.8579 86.4211 35.2306 85.5397 35.2306C84.6583 35.2306 83.9438 35.8579 83.9438 36.6316C83.9438 37.4054 84.6583 38.0327 85.5397 38.0327Z" fill="#D17E00"/>
<path d="M82.4755 33.0114C83.3568 33.0114 84.0713 32.3842 84.0713 31.6104C84.0713 30.8366 83.3568 30.2094 82.4755 30.2094C81.5941 30.2094 80.8796 30.8366 80.8796 31.6104C80.8796 32.3842 81.5941 33.0114 82.4755 33.0114Z" fill="#D17E00"/>
<path d="M69.7089 31.0388C70.5902 31.0388 71.3047 30.4115 71.3047 29.6377C71.3047 28.864 70.5902 28.2367 69.7089 28.2367C68.8275 28.2367 68.113 28.864 68.113 29.6377C68.113 30.4115 68.8275 31.0388 69.7089 31.0388Z" fill="#D17E00"/>
<path d="M77.8798 30.142C78.7611 30.142 79.4756 29.5148 79.4756 28.741C79.4756 27.9672 78.7611 27.34 77.8798 27.34C76.9984 27.34 76.2839 27.9672 76.2839 28.741C76.2839 29.5148 76.9984 30.142 77.8798 30.142Z" fill="#D17E00"/>
<defs>
<clipPath id="clip0_160_689">
<rect width="48.3168" height="75.2475" fill="white"/>
</clipPath>
<clipPath id="clip1_160_689">
<rect width="47.5248" height="62.5743" fill="white" transform="translate(72.0791 8.71289)"/>
</clipPath>
</defs>
</svg>
