<svg width="75" height="75" viewBox="0 0 75 75" fill="none" xmlns="http://www.w3.org/2000/svg">
<path d="M52.8312 22.4477C52.8461 22.4477 52.866 22.4477 52.886 22.4477C53.4064 22.4477 53.8894 22.6096 54.2854 22.8884L54.2779 22.8835C54.5667 23.135 54.761 23.4885 54.8083 23.887V23.8944C54.8581 24.1982 54.8855 24.5468 54.8855 24.9029C54.8855 25.0647 54.8805 25.2241 54.868 25.3835V25.3611C54.3078 31.26 51.8775 45.5652 50.6424 52.1688C50.1195 54.9651 49.0911 55.9014 48.0951 55.991C45.9313 56.1927 44.2878 54.5618 42.1912 53.1873C38.9094 51.0334 37.0543 49.6937 33.8695 47.5946C30.1868 45.1718 32.5747 43.8347 34.6713 41.6584C35.2216 41.0857 44.761 32.4079 44.9477 31.621C44.9577 31.5737 44.9626 31.5214 44.9626 31.4666C44.9626 31.2724 44.8904 31.0956 44.7734 30.9612C44.6439 30.8765 44.4821 30.8292 44.3127 30.8292C44.2007 30.8292 44.0936 30.8516 43.994 30.8889L43.999 30.8865C43.6703 30.9612 38.428 34.4256 28.2719 41.2799C27.1638 42.1539 25.7644 42.7067 24.2405 42.7714H24.2256C22.0667 42.51 20.1071 42.0294 18.247 41.3446L18.4313 41.4044C16.0956 40.6424 14.2405 40.2415 14.3999 38.9517C14.4846 38.281 15.4092 37.5946 17.1738 36.8924C28.0437 32.1564 35.2922 29.0347 38.9193 27.5274C42.9208 25.4034 47.5598 23.6554 52.4377 22.5224L52.8287 22.4452L52.8312 22.4477ZM37.4128 0C16.7405 0.0498008 0 16.8202 0 37.5C0 58.2097 16.7878 75 37.5 75C58.2122 75 75 58.2122 75 37.5C75 16.8202 58.2595 0.0498008 37.5921 0H37.5872C37.529 0 37.471 0 37.4128 0Z" fill="black"/>
</svg>
