<svg width="75" height="75" viewBox="0 0 75 75" fill="none" xmlns="http://www.w3.org/2000/svg">
<g clip-path="url(#clip0_125_1332)">
<path d="M37.5 0C16.7893 0 0 16.7893 0 37.5C0 58.2107 16.7893 75 37.5 75C58.2107 75 75 58.2107 75 37.5C75 16.7893 58.2107 0 37.5 0ZM38.2216 31.8444C38.2339 31.845 38.2456 31.8475 38.2582 31.848C38.13 31.2984 38.0637 30.7254 38.0637 30.1368C38.0637 25.9903 41.4256 22.6283 45.5728 22.6283C47.7322 22.6283 49.6835 23.5402 51.0533 24.9996C52.4596 24.7228 53.7902 24.2417 55.0273 23.6046C55.2882 23.4781 55.5497 23.3522 55.8066 23.2129C55.3614 24.5802 54.5257 25.7635 53.4422 26.66C53.1486 26.8909 52.8472 27.1138 52.5155 27.2963C52.5381 27.2937 52.5601 27.2887 52.5825 27.2859C52.5605 27.2996 52.5422 27.3182 52.5198 27.3316C53.7505 27.1844 54.9308 26.8847 56.0517 26.4612C56.3029 26.3745 56.5538 26.2868 56.8027 26.1899C55.8004 27.6781 54.5391 28.9871 53.0856 30.0365C53.1 30.3583 53.1073 30.6819 53.1073 31.0078C53.1073 40.9301 45.5549 52.3714 31.7435 52.3714C27.5032 52.3714 23.5563 51.1286 20.2333 48.9981C20.8207 49.0674 21.4187 49.1029 22.0247 49.1029C24.8278 49.1029 27.4466 48.3311 29.698 47.0023C30.265 46.6756 30.8197 46.3228 31.3493 45.9234C31.3349 45.9231 31.3219 45.9196 31.3075 45.9193C31.3213 45.9086 31.3362 45.8994 31.3499 45.8887C28.5048 45.8363 26.0495 44.1984 24.8205 41.8242C24.6374 41.4596 24.4806 41.0777 24.357 40.6771C24.809 40.7621 25.2719 40.8086 25.7486 40.8086C26.2453 40.8086 26.725 40.7448 27.1945 40.6529C27.3699 40.6283 27.547 40.6078 27.7198 40.5794C27.697 40.5747 27.6769 40.5647 27.6541 40.5599C27.6778 40.5538 27.7033 40.5517 27.7267 40.5453C24.2918 39.8555 21.7034 36.8205 21.7034 33.1827C21.7034 33.154 21.7037 33.126 21.704 33.0977L21.7075 33.0896C22.5163 33.5385 23.4204 33.8355 24.3779 33.9598C24.6136 33.9992 24.8498 34.0354 25.0857 34.056C25.0696 34.0452 25.0557 34.032 25.0397 34.0211C25.062 34.022 25.0833 34.0264 25.1052 34.0271C23.0905 32.6808 21.7649 30.3822 21.7649 27.7772C21.7649 26.5846 22.0562 25.4647 22.5511 24.4633C22.6301 24.3127 22.7002 24.1589 22.7909 24.013C26.1177 28.0885 30.9231 30.8936 36.3848 31.6522C36.9942 31.7408 37.6053 31.8198 38.2236 31.8555C38.2228 31.852 38.2225 31.848 38.2216 31.8444Z" fill="black"/>
</g>
<defs>
<clipPath id="clip0_125_1332">
<rect width="75" height="75" fill="white"/>
</clipPath>
</defs>
</svg>
